<?xml version="1.0" standalone="no"?>
<!DOCTYPE svg PUBLIC "-//W3C//DTD SVG 20010904//EN"
 "http://www.w3.org/TR/2001/REC-SVG-20010904/DTD/svg10.dtd">
<svg version="1.0" xmlns="http://www.w3.org/2000/svg"
 width="100.000000pt" height="100.000000pt" viewBox="0 0 100.000000 100.000000"
 preserveAspectRatio="xMidYMid meet">
<metadata>
Created by potrace 1.11, written by Peter Selinger 2001-2013
</metadata>
<g transform="translate(0.000000,100.000000) scale(0.100000,-0.100000)"
fill="#000000" stroke="none">
<path d="M380 985 c-25 -7 -56 -16 -70 -21 -43 -13 -129 -72 -175 -122 -95
-101 -141 -231 -132 -372 9 -128 46 -218 125 -302 108 -116 231 -170 375 -167
146 3 246 46 348 148 109 109 152 220 145 377 -9 205 -131 370 -329 446 -64
25 -220 32 -287 13z"/>
</g>
</svg>
